<svg width="28" height="29" viewBox="0 0 28 29" fill="none" xmlns="http://www.w3.org/2000/svg">
<path d="M10.4162 22.2303C10.4162 22.2303 9.37344 22.8588 11.1593 23.0709C13.3232 23.3269 14.429 23.2902 16.8129 22.8235C16.8129 22.8235 17.4409 23.2301 18.3164 23.5827C12.9703 25.9548 6.21775 23.4451 10.4162 22.2303ZM9.7626 19.1343C9.7626 19.1343 8.59272 20.0313 10.3801 20.223C12.6917 20.4702 14.5167 20.4903 17.6763 19.8605C17.6763 19.8605 18.1123 20.3193 18.7989 20.5698C12.3366 22.5273 5.13888 20.7239 9.7626 19.1343Z" fill="#0074BD"/>
<path d="M15.2692 13.8817C16.5871 15.4529 14.9236 16.8656 14.9236 16.8656C14.9236 16.8656 18.268 15.0777 16.7324 12.8379C15.2976 10.7502 14.1977 9.7132 20.1526 6.13623C20.1526 6.13646 10.8051 8.55365 15.2692 13.8817Z" fill="#EA2D2E"/>
<path d="M22.3394 24.5206C22.3394 24.5206 23.1114 25.1799 21.4889 25.6895C18.4041 26.6574 8.64697 26.9492 5.93709 25.7282C4.96344 25.2891 6.79 24.6804 7.36465 24.5519C7.96381 24.4176 8.30594 24.442 8.30594 24.442C7.22247 23.652 1.30309 25.994 5.29965 26.6657C16.198 28.4955 25.1659 25.8417 22.3394 24.5206ZM10.9182 15.926C10.9182 15.926 5.95569 17.1469 9.16103 17.5908C10.5147 17.7784 13.2118 17.7353 15.7259 17.5169C17.78 17.3382 19.8413 16.9564 19.8413 16.9564C19.8413 16.9564 19.1177 17.2779 18.5935 17.6481C13.5531 19.0213 3.81828 18.3817 6.62112 16.9779C8.99062 15.791 10.9182 15.926 10.9182 15.926ZM19.8207 21.0796C24.9441 18.323 22.575 15.6738 20.9215 16.0307C20.5172 16.1179 20.3359 16.1938 20.3359 16.1938C20.3359 16.1938 20.4864 15.9493 20.7734 15.8442C24.0443 14.6536 26.5595 19.3566 19.7183 21.2194C19.7183 21.2189 19.7969 21.1453 19.8207 21.0796Z" fill="#0074BD"/>
<path d="M16.7324 0.359558C16.7324 0.359558 19.5692 3.29943 14.0411 7.81867C9.60794 11.445 13.0303 13.5122 14.0396 15.875C11.4516 13.4569 9.55326 11.3279 10.8266 9.34661C12.6965 6.43891 17.8767 5.02856 16.7324 0.359558Z" fill="#EA2D2E"/>
<path d="M11.4218 28.5516C16.3384 28.8772 23.8906 28.3704 24.0693 25.9606C24.0693 25.9606 23.7256 26.8741 20.0056 27.5989C15.8086 28.4173 10.6312 28.3219 7.56152 27.7969C7.56152 27.7971 8.19043 28.3364 11.4218 28.5516Z" fill="#0074BD"/>
</svg>
